<svg width="250" height="113" viewBox="0 0 250 113" fill="none" xmlns="http://www.w3.org/2000/svg">
<rect width="250" height="112.5" fill="black"/>
<g filter="url(#filter0_i_3346_25)">
<path d="M21.4461 43.0147C39.6242 31.6544 91.1152 7.14706 151.654 0L165.441 5.625C138.072 9.15439 71.6299 21.5735 24.8162 43.0147H21.4461Z" fill="#FE0032"/>
<path d="M173.1 9.26471C77.7573 21.1765 34.5179 40.6985 24.8162 48.9706H28.1863C63.9706 28.8529 147.263 20.2941 184.436 18.5294L173.1 9.26471Z" fill="#FE0032"/>
<path d="M25.7353 52.9412C42.9943 43.6765 100 24.6838 189.951 22.8309L199.755 33.0882C159.884 33.1419 71.7285 37.626 27.5735 53.2721L25.7353 52.9412Z" fill="#FE0032"/>
</g>
<g filter="url(#filter1_i_3346_25)">
<path d="M215.38 62.8676C119.379 44.5104 53.7915 52.8793 34.9265 60.8824H40.4412C103.431 49.5 167.79 60.9926 192.096 68.1618L215.38 62.8676Z" fill="#006DB8"/>
<path d="M208.946 37.7206C104.289 35.3382 46.058 49.3015 30.0245 56.5809L30.9436 57.2426C95.5104 39.4054 186.021 50.3702 223.652 58.2353L208.946 37.7206Z" fill="#006DB8"/>
</g>
<g filter="url(#filter2_i_3346_25)">
<path d="M10.723 100.919H0L5.27236 81.7279H15.9954L10.723 100.919ZM17.0863 77.7574H6.36324L8.27206 70.8088H18.9951L17.0863 77.7574Z" fill="#006DB8"/>
</g>
<g filter="url(#filter3_i_3346_25)">
<path d="M53.7486 81.7279C52.2977 84.4312 50.0497 86.8129 48.2872 88.2768L48.2046 88.3456H31.1321L27.561 101.345L27.4957 101.581H16.1336L16.2503 101.155L21.5879 81.7279H53.7486ZM52.5866 70.8862C54.1705 72.3236 54.9605 73.9383 55.168 75.6126C55.2564 76.326 55.2375 77.044 55.1339 77.7574H20.4683L20.5767 77.5773L24.5343 71.0001L24.5876 70.8088H52.5016L52.5866 70.8862Z" fill="#006DB8"/>
</g>
<g filter="url(#filter4_i_3346_25)">
<path d="M90.3113 82.0588C88.8603 84.7621 86.6121 87.1438 84.8499 88.6076L84.7671 88.6765H67.6948L64.1232 101.676L64.0582 101.912H52.6961L52.8127 101.486L58.1504 82.0588H90.3113ZM89.1489 71.2171C90.7328 72.6545 91.5233 74.2692 91.7304 75.9435C91.8186 76.6568 91.7996 77.3749 91.6961 78.0882H57.0308L57.1391 77.9082L61.0968 71.331L61.1501 71.1397H89.0643L89.1489 71.2171Z" fill="#006DB8"/>
</g>
<g filter="url(#filter5_i_3346_25)">
<path d="M109.62 102.64C107.512 102.64 105.65 102.11 104.032 101.051C102.439 99.9662 101.189 98.4838 100.282 96.6044C99.375 94.6985 98.9216 92.5147 98.9216 90.0529C98.9216 87.7765 99.3015 85.6324 100.061 83.6206C100.821 81.5824 101.875 79.7956 103.223 78.2603C104.571 76.6985 106.115 75.4809 107.855 74.6074C109.596 73.7074 111.458 73.2574 113.444 73.2574C115.6 73.2574 117.475 73.7868 119.069 74.8456C120.686 75.8779 121.949 77.3338 122.855 79.2132C123.762 81.0662 124.216 83.2235 124.216 85.6853C124.216 87.9618 123.824 90.1191 123.039 92.1574C122.279 94.1956 121.225 96.0088 119.877 97.5971C118.529 99.1588 116.973 100.39 115.208 101.29C113.468 102.19 111.605 102.64 109.62 102.64ZM109.804 99.7015C111.324 99.7015 112.757 99.3441 114.105 98.6294C115.478 97.8882 116.691 96.8824 117.745 95.6118C118.799 94.3147 119.62 92.8324 120.208 91.1647C120.821 89.4706 121.127 87.6838 121.127 85.8044C121.127 83.8721 120.797 82.1912 120.135 80.7618C119.473 79.3324 118.542 78.2206 117.341 77.4265C116.164 76.6059 114.767 76.1956 113.15 76.1956C111.63 76.1956 110.196 76.5529 108.848 77.2677C107.525 77.9824 106.348 78.975 105.319 80.2456C104.289 81.5162 103.48 82.9853 102.892 84.6529C102.328 86.3206 102.047 88.1074 102.047 90.0132C102.047 91.9456 102.365 93.6397 103.002 95.0956C103.664 96.5515 104.571 97.6897 105.723 98.5103C106.9 99.3044 108.26 99.7015 109.804 99.7015ZM125.912 102.243L130.213 81.9927H133.154L128.853 102.243H125.912ZM130.875 77.3868L131.61 73.6544H134.993L134.257 77.3868H130.875ZM134.743 102.243L140.846 73.6544H143.787L137.684 102.243H134.743ZM171.009 102.243L160.347 86.0427C159.636 84.9574 159.109 83.9382 158.766 82.9853C158.423 82.0059 158.251 81.0662 158.251 80.1662C158.251 78.8427 158.558 77.6647 159.17 76.6324C159.783 75.5735 160.629 74.7529 161.707 74.1706C162.786 73.5618 163.999 73.2574 165.347 73.2574C166.621 73.2574 167.749 73.5221 168.729 74.0515C169.71 74.5544 170.482 75.2559 171.045 76.1559C171.609 77.0294 171.891 78.0485 171.891 79.2132C171.891 80.4574 171.548 81.5956 170.862 82.6279C170.175 83.6603 169.183 84.5471 167.884 85.2882C166.609 86.0029 165.077 86.5324 163.288 86.8765L162.222 84.6529C163.57 84.4941 164.746 84.1765 165.751 83.7C166.781 83.2235 167.577 82.6147 168.141 81.8735C168.729 81.1324 169.023 80.325 169.023 79.4515C169.023 78.4191 168.656 77.5721 167.92 76.9103C167.21 76.2485 166.29 75.9177 165.163 75.9177C164.011 75.9177 163.055 76.3147 162.295 77.1088C161.56 77.8765 161.192 78.8559 161.192 80.0471C161.192 80.7882 161.364 81.5824 161.707 82.4294C162.075 83.25 162.687 84.3088 163.545 85.6059L174.795 102.243H171.009ZM160.825 102.64C159.452 102.64 158.202 102.454 157.075 102.084C155.947 101.687 154.967 101.144 154.134 100.456C153.325 99.7412 152.7 98.9074 152.259 97.9544C151.817 96.975 151.597 95.8897 151.597 94.6985C151.597 93.0574 151.989 91.575 152.773 90.2515C153.558 88.9015 154.661 87.7765 156.082 86.8765C157.528 85.9765 159.219 85.3677 161.156 85.05L162.295 87.2338C160.653 87.4985 159.256 87.9485 158.104 88.5838C156.952 89.2191 156.082 90.0132 155.494 90.9662C154.906 91.9191 154.612 93.0177 154.612 94.2618C154.612 95.4265 154.869 96.4324 155.384 97.2794C155.923 98.1265 156.67 98.775 157.626 99.225C158.582 99.675 159.722 99.9 161.045 99.9C162.516 99.9 163.876 99.6088 165.126 99.0265C166.401 98.4441 167.54 97.5971 168.545 96.4853C169.55 95.3471 170.408 93.9706 171.119 92.3559C171.83 90.7412 172.369 88.9015 172.737 86.8368H175.604C175.163 89.2721 174.489 91.4691 173.582 93.4279C172.7 95.3603 171.609 97.0147 170.31 98.3912C169.036 99.7676 167.589 100.826 165.972 101.568C164.379 102.282 162.663 102.64 160.825 102.64ZM198.475 102.64C196.343 102.64 194.48 102.137 192.887 101.131C191.318 100.099 190.093 98.6691 189.21 96.8426C188.352 94.9897 187.923 92.8191 187.923 90.3309C187.923 88.4515 188.181 86.6647 188.695 84.9706C189.21 83.25 189.921 81.675 190.828 80.2456C191.759 78.8162 192.838 77.5853 194.063 76.5529C195.313 75.4941 196.661 74.6868 198.107 74.1309C199.553 73.5485 201.061 73.2574 202.629 73.2574C204.124 73.2574 205.472 73.4956 206.673 73.9721C207.899 74.4221 208.941 75.0706 209.798 75.9177C210.681 76.7647 211.355 77.7574 211.82 78.8956C212.311 80.0338 212.568 81.2779 212.593 82.6279H209.578C209.504 81.6221 209.284 80.7353 208.916 79.9676C208.573 79.1735 208.095 78.4985 207.482 77.9427C206.894 77.3868 206.183 76.9632 205.35 76.6721C204.517 76.3809 203.585 76.2353 202.556 76.2353C201.281 76.2353 200.056 76.4603 198.879 76.9103C197.727 77.3603 196.661 78.0088 195.681 78.8559C194.725 79.7029 193.892 80.7088 193.181 81.8735C192.494 83.0382 191.955 84.3353 191.563 85.7647C191.171 87.1677 190.975 88.6765 190.975 90.2912C190.975 93.2559 191.649 95.5721 192.997 97.2397C194.369 98.8809 196.281 99.7015 198.732 99.7015C200.546 99.7015 202.164 99.4103 203.585 98.8279C205.007 98.2456 206.134 97.4118 206.968 96.3265L209.651 97.6368C208.426 99.1191 206.894 100.324 205.056 101.25C203.218 102.176 201.024 102.64 198.475 102.64ZM206.637 97.6368L208.512 88.7824L209.357 90.0132H200.975L201.637 87.1544H211.894L209.651 97.6368H206.637ZM225.417 102.243C225.392 101.951 225.417 101.515 225.49 100.932C225.588 100.35 225.711 99.6882 225.858 98.9471L225.674 98.9074L227.733 89.2985C227.929 88.425 227.953 87.6044 227.806 86.8368C227.684 86.0691 227.316 85.4603 226.703 85.0103C226.115 84.5338 225.221 84.2956 224.02 84.2956C222.672 84.2956 221.581 84.6 220.748 85.2088C219.939 85.7912 219.375 86.6779 219.056 87.8691H216.299C216.789 85.8309 217.733 84.2824 219.13 83.2235C220.527 82.1382 222.292 81.5956 224.424 81.5956C226.287 81.5956 227.708 81.9794 228.689 82.7471C229.694 83.4882 230.331 84.4676 230.6 85.6853C230.87 86.9029 230.858 88.2 230.564 89.5765L228.578 98.8279C228.48 99.3309 228.395 99.9 228.321 100.535C228.248 101.171 228.223 101.74 228.248 102.243H225.417ZM219.571 102.64C217.855 102.64 216.483 102.15 215.453 101.171C214.424 100.165 213.909 98.8544 213.909 97.2397C213.909 95.9956 214.203 94.9235 214.792 94.0235C215.38 93.1235 216.238 92.3956 217.365 91.8397C218.517 91.2574 219.939 90.8603 221.63 90.6485L228.321 89.8147L227.77 92.3956L221.556 93.15C219.939 93.3353 218.738 93.7588 217.953 94.4206C217.169 95.0559 216.777 95.9427 216.777 97.0809C216.777 98.0338 217.071 98.7485 217.659 99.225C218.272 99.7015 219.154 99.9397 220.306 99.9397C221.85 99.9397 223.174 99.5559 224.277 98.7882C225.38 98.0206 226.078 97.0015 226.373 95.7309L226.262 98.5897C225.576 99.8603 224.645 100.853 223.468 101.568C222.316 102.282 221.017 102.64 219.571 102.64ZM240.646 102.64C239.151 102.64 237.84 102.362 236.713 101.806C235.585 101.25 234.715 100.482 234.102 99.5029C233.49 98.4971 233.208 97.3324 233.257 96.0088H236.088C236.112 96.8294 236.32 97.5441 236.713 98.153C237.129 98.7353 237.681 99.1985 238.367 99.5427C239.078 99.8603 239.887 100.019 240.793 100.019C242.019 100.019 242.999 99.728 243.735 99.1456C244.494 98.5632 244.874 97.7824 244.874 96.8029C244.874 96.1412 244.678 95.5985 244.286 95.175C243.894 94.725 243.269 94.3147 242.411 93.9441L239.727 92.7132C238.379 92.1044 237.374 91.4029 236.713 90.6088C236.075 89.7882 235.757 88.8088 235.757 87.6706C235.757 86.4794 236.051 85.4338 236.639 84.5338C237.227 83.6074 238.024 82.8927 239.029 82.3897C240.058 81.8603 241.235 81.5956 242.558 81.5956C243.857 81.5956 245.009 81.8471 246.014 82.35C247.019 82.8529 247.803 83.5544 248.367 84.4544C248.955 85.3279 249.262 86.3735 249.286 87.5912H246.492C246.418 86.8765 246.198 86.2677 245.83 85.7647C245.487 85.2618 245.009 84.8779 244.396 84.6132C243.808 84.3485 243.097 84.2162 242.264 84.2162C241.161 84.2162 240.279 84.4809 239.617 85.0103C238.955 85.5397 238.624 86.2676 238.624 87.1941C238.624 87.8029 238.82 88.3324 239.213 88.7824C239.605 89.2059 240.23 89.6162 241.088 90.0132L243.698 91.2044C245.07 91.8397 246.075 92.5809 246.713 93.4279C247.374 94.275 247.705 95.2809 247.705 96.4456C247.705 97.6897 247.411 98.7882 246.823 99.7412C246.259 100.668 245.45 101.382 244.396 101.885C243.343 102.388 242.093 102.64 240.646 102.64Z" fill="#FE0032"/>
</g>
<defs>
<filter id="filter0_i_3346_25" x="21.4461" y="0" width="178.309" height="57.2721" filterUnits="userSpaceOnUse" color-interpolation-filters="sRGB">
<feFlood flood-opacity="0" result="BackgroundImageFix"/>
<feBlend mode="normal" in="SourceGraphic" in2="BackgroundImageFix" result="shape"/>
<feColorMatrix in="SourceAlpha" type="matrix" values="0 0 0 0 0 0 0 0 0 0 0 0 0 0 0 0 0 0 127 0" result="hardAlpha"/>
<feOffset dy="4"/>
<feGaussianBlur stdDeviation="2"/>
<feComposite in2="hardAlpha" operator="arithmetic" k2="-1" k3="1"/>
<feColorMatrix type="matrix" values="0 0 0 0 0 0 0 0 0 0 0 0 0 0 0 0 0 0 0.25 0"/>
<feBlend mode="normal" in2="shape" result="effect1_innerShadow_3346_25"/>
</filter>
<filter id="filter1_i_3346_25" x="30.0245" y="37.4505" width="193.627" height="34.7113" filterUnits="userSpaceOnUse" color-interpolation-filters="sRGB">
<feFlood flood-opacity="0" result="BackgroundImageFix"/>
<feBlend mode="normal" in="SourceGraphic" in2="BackgroundImageFix" result="shape"/>
<feColorMatrix in="SourceAlpha" type="matrix" values="0 0 0 0 0 0 0 0 0 0 0 0 0 0 0 0 0 0 127 0" result="hardAlpha"/>
<feOffset dy="4"/>
<feGaussianBlur stdDeviation="2"/>
<feComposite in2="hardAlpha" operator="arithmetic" k2="-1" k3="1"/>
<feColorMatrix type="matrix" values="0 0 0 0 0 0 0 0 0 0 0 0 0 0 0 0 0 0 0.25 0"/>
<feBlend mode="normal" in2="shape" result="effect1_innerShadow_3346_25"/>
</filter>
<filter id="filter2_i_3346_25" x="0" y="70.8088" width="18.9951" height="34.1103" filterUnits="userSpaceOnUse" color-interpolation-filters="sRGB">
<feFlood flood-opacity="0" result="BackgroundImageFix"/>
<feBlend mode="normal" in="SourceGraphic" in2="BackgroundImageFix" result="shape"/>
<feColorMatrix in="SourceAlpha" type="matrix" values="0 0 0 0 0 0 0 0 0 0 0 0 0 0 0 0 0 0 127 0" result="hardAlpha"/>
<feOffset dy="4"/>
<feGaussianBlur stdDeviation="2"/>
<feComposite in2="hardAlpha" operator="arithmetic" k2="-1" k3="1"/>
<feColorMatrix type="matrix" values="0 0 0 0 0 0 0 0 0 0 0 0 0 0 0 0 0 0 0.25 0"/>
<feBlend mode="normal" in2="shape" result="effect1_innerShadow_3346_25"/>
</filter>
<filter id="filter3_i_3346_25" x="16.1336" y="70.8088" width="39.0907" height="34.7721" filterUnits="userSpaceOnUse" color-interpolation-filters="sRGB">
<feFlood flood-opacity="0" result="BackgroundImageFix"/>
<feBlend mode="normal" in="SourceGraphic" in2="BackgroundImageFix" result="shape"/>
<feColorMatrix in="SourceAlpha" type="matrix" values="0 0 0 0 0 0 0 0 0 0 0 0 0 0 0 0 0 0 127 0" result="hardAlpha"/>
<feOffset dy="4"/>
<feGaussianBlur stdDeviation="2"/>
<feComposite in2="hardAlpha" operator="arithmetic" k2="-1" k3="1"/>
<feColorMatrix type="matrix" values="0 0 0 0 0 0 0 0 0 0 0 0 0 0 0 0 0 0 0.25 0"/>
<feBlend mode="normal" in2="shape" result="effect1_innerShadow_3346_25"/>
</filter>
<filter id="filter4_i_3346_25" x="52.6961" y="71.1397" width="39.0904" height="34.7721" filterUnits="userSpaceOnUse" color-interpolation-filters="sRGB">
<feFlood flood-opacity="0" result="BackgroundImageFix"/>
<feBlend mode="normal" in="SourceGraphic" in2="BackgroundImageFix" result="shape"/>
<feColorMatrix in="SourceAlpha" type="matrix" values="0 0 0 0 0 0 0 0 0 0 0 0 0 0 0 0 0 0 127 0" result="hardAlpha"/>
<feOffset dy="4"/>
<feGaussianBlur stdDeviation="2"/>
<feComposite in2="hardAlpha" operator="arithmetic" k2="-1" k3="1"/>
<feColorMatrix type="matrix" values="0 0 0 0 0 0 0 0 0 0 0 0 0 0 0 0 0 0 0.25 0"/>
<feBlend mode="normal" in2="shape" result="effect1_innerShadow_3346_25"/>
</filter>
<filter id="filter5_i_3346_25" x="98.9216" y="73.2574" width="150.365" height="33.3824" filterUnits="userSpaceOnUse" color-interpolation-filters="sRGB">
<feFlood flood-opacity="0" result="BackgroundImageFix"/>
<feBlend mode="normal" in="SourceGraphic" in2="BackgroundImageFix" result="shape"/>
<feColorMatrix in="SourceAlpha" type="matrix" values="0 0 0 0 0 0 0 0 0 0 0 0 0 0 0 0 0 0 127 0" result="hardAlpha"/>
<feOffset dy="4"/>
<feGaussianBlur stdDeviation="2"/>
<feComposite in2="hardAlpha" operator="arithmetic" k2="-1" k3="1"/>
<feColorMatrix type="matrix" values="0 0 0 0 0 0 0 0 0 0 0 0 0 0 0 0 0 0 0.25 0"/>
<feBlend mode="normal" in2="shape" result="effect1_innerShadow_3346_25"/>
</filter>
</defs>
</svg>
