<svg width="669" height="347" viewBox="0 0 669 347" fill="none" xmlns="http://www.w3.org/2000/svg">
<rect width="669" height="347" fill="white"/>
<rect width="669" height="347" fill="white"/>
<g filter="url(#filter0_i_3319_2)">
<path d="M183 156.5C212.667 139.333 296.7 102.3 395.5 91.5L418 100C373.333 105.333 264.9 124.1 188.5 156.5H183Z" fill="#FE0032" stroke="#FC000A"/>
<path d="M430.5 105.5C274.9 123.5 204.333 153 188.5 165.5H194C252.4 135.1 388.333 122.167 449 119.5L430.5 105.5Z" fill="#FE0032" stroke="#FC000A"/>
<path d="M190 171.5C218.167 157.5 311.2 128.8 458 126L474 141.5C408.931 141.581 265.061 148.357 193 172L190 171.5Z" fill="#FE0032" stroke="#FC000A"/>
</g>
<g filter="url(#filter1_i_3319_2)">
<path d="M499.5 186.5C342.827 158.76 235.788 171.407 205 183.5H214C316.8 166.3 421.833 183.667 461.5 194.5L499.5 186.5Z" fill="#006DB8" stroke="#013A80"/>
<path d="M489 148.5C318.2 144.9 223.167 166 197 177L198.5 178C303.873 151.046 451.586 167.615 513 179.5L489 148.5Z" fill="#006DB8" stroke="#013A80"/>
</g>
<g filter="url(#filter2_i_3319_2)">
<path d="M165.5 244H148L156.604 215H174.104L165.5 244ZM175.885 209H158.385L161.5 198.5H179L175.885 209Z" fill="#006DB8"/>
</g>
<g filter="url(#filter3_i_3319_2)">
<path d="M235.718 215C233.35 219.085 229.681 222.684 226.805 224.896L226.67 225H198.808L192.979 244.643L192.873 245H174.33L174.521 244.357L183.231 215H235.718ZM233.821 198.617C236.406 200.789 237.696 203.229 238.034 205.759C238.178 206.837 238.148 207.922 237.979 209H181.404L181.581 208.728L188.04 198.789L188.127 198.5H233.683L233.821 198.617Z" fill="#006DB8"/>
</g>
<g filter="url(#filter4_i_3319_2)">
<path d="M295.388 215.5C293.02 219.585 289.351 223.184 286.475 225.396L286.34 225.5H258.478L252.649 245.143L252.543 245.5H234L234.19 244.857L242.901 215.5H295.388ZM293.491 199.117C296.076 201.289 297.366 203.729 297.704 206.259C297.848 207.337 297.817 208.422 297.648 209.5H241.074L241.251 209.228L247.71 199.289L247.797 199H293.353L293.491 199.117Z" fill="#006DB8"/>
</g>
<g filter="url(#filter5_i_3319_2)">
<path d="M326.9 246.6C323.46 246.6 320.42 245.8 317.78 244.2C315.18 242.56 313.14 240.32 311.66 237.48C310.18 234.6 309.44 231.3 309.44 227.58C309.44 224.14 310.06 220.9 311.3 217.86C312.54 214.78 314.26 212.08 316.46 209.76C318.66 207.4 321.18 205.56 324.02 204.24C326.86 202.88 329.9 202.2 333.14 202.2C336.66 202.2 339.72 203 342.32 204.6C344.96 206.16 347.02 208.36 348.5 211.2C349.98 214 350.72 217.26 350.72 220.98C350.72 224.42 350.08 227.68 348.8 230.76C347.56 233.84 345.84 236.58 343.64 238.98C341.44 241.34 338.9 243.2 336.02 244.56C333.18 245.92 330.14 246.6 326.9 246.6ZM327.2 242.16C329.68 242.16 332.02 241.62 334.22 240.54C336.46 239.42 338.44 237.9 340.16 235.98C341.88 234.02 343.22 231.78 344.18 229.26C345.18 226.7 345.68 224 345.68 221.16C345.68 218.24 345.14 215.7 344.06 213.54C342.98 211.38 341.46 209.7 339.5 208.5C337.58 207.26 335.3 206.64 332.66 206.64C330.18 206.64 327.84 207.18 325.64 208.26C323.48 209.34 321.56 210.84 319.88 212.76C318.2 214.68 316.88 216.9 315.92 219.42C315 221.94 314.54 224.64 314.54 227.52C314.54 230.44 315.06 233 316.1 235.2C317.18 237.4 318.66 239.12 320.54 240.36C322.46 241.56 324.68 242.16 327.2 242.16ZM353.488 246L360.508 215.4H365.308L358.288 246H353.488ZM361.588 208.44L362.788 202.8H368.308L367.108 208.44H361.588ZM367.901 246L377.861 202.8H382.661L372.701 246H367.901ZM427.086 246L409.686 221.52C408.526 219.88 407.666 218.34 407.106 216.9C406.546 215.42 406.266 214 406.266 212.64C406.266 210.64 406.766 208.86 407.766 207.3C408.766 205.7 410.146 204.46 411.906 203.58C413.666 202.66 415.646 202.2 417.846 202.2C419.926 202.2 421.766 202.6 423.366 203.4C424.966 204.16 426.226 205.22 427.146 206.58C428.066 207.9 428.526 209.44 428.526 211.2C428.526 213.08 427.966 214.8 426.846 216.36C425.726 217.92 424.106 219.26 421.986 220.38C419.906 221.46 417.406 222.26 414.486 222.78L412.746 219.42C414.946 219.18 416.866 218.7 418.506 217.98C420.186 217.26 421.486 216.34 422.406 215.22C423.366 214.1 423.846 212.88 423.846 211.56C423.846 210 423.246 208.72 422.046 207.72C420.886 206.72 419.386 206.22 417.546 206.22C415.666 206.22 414.106 206.82 412.866 208.02C411.666 209.18 411.066 210.66 411.066 212.46C411.066 213.58 411.346 214.78 411.906 216.06C412.506 217.3 413.506 218.9 414.906 220.86L433.266 246H427.086ZM410.466 246.6C408.226 246.6 406.186 246.32 404.346 245.76C402.506 245.16 400.906 244.34 399.546 243.3C398.226 242.22 397.206 240.96 396.486 239.52C395.766 238.04 395.406 236.4 395.406 234.6C395.406 232.12 396.046 229.88 397.326 227.88C398.606 225.84 400.406 224.14 402.726 222.78C405.086 221.42 407.846 220.5 411.006 220.02L412.866 223.32C410.186 223.72 407.906 224.4 406.026 225.36C404.146 226.32 402.726 227.52 401.766 228.96C400.806 230.4 400.326 232.06 400.326 233.94C400.326 235.7 400.746 237.22 401.586 238.5C402.466 239.78 403.686 240.76 405.246 241.44C406.806 242.12 408.666 242.46 410.826 242.46C413.226 242.46 415.446 242.02 417.486 241.14C419.566 240.26 421.426 238.98 423.066 237.3C424.706 235.58 426.106 233.5 427.266 231.06C428.426 228.62 429.306 225.84 429.906 222.72H434.586C433.866 226.4 432.766 229.72 431.286 232.68C429.846 235.6 428.066 238.1 425.946 240.18C423.866 242.26 421.506 243.86 418.866 244.98C416.266 246.06 413.466 246.6 410.466 246.6ZM471.911 246.6C468.431 246.6 465.391 245.84 462.791 244.32C460.231 242.76 458.231 240.6 456.791 237.84C455.391 235.04 454.691 231.76 454.691 228C454.691 225.16 455.111 222.46 455.951 219.9C456.791 217.3 457.951 214.92 459.431 212.76C460.951 210.6 462.711 208.74 464.711 207.18C466.751 205.58 468.951 204.36 471.311 203.52C473.671 202.64 476.131 202.2 478.691 202.2C481.131 202.2 483.331 202.56 485.291 203.28C487.291 203.96 488.991 204.94 490.391 206.22C491.831 207.5 492.931 209 493.691 210.72C494.491 212.44 494.911 214.32 494.951 216.36H490.031C489.911 214.84 489.551 213.5 488.951 212.34C488.391 211.14 487.611 210.12 486.611 209.28C485.651 208.44 484.491 207.8 483.131 207.36C481.771 206.92 480.251 206.7 478.571 206.7C476.491 206.7 474.491 207.04 472.571 207.72C470.691 208.4 468.951 209.38 467.351 210.66C465.791 211.94 464.431 213.46 463.271 215.22C462.151 216.98 461.271 218.94 460.631 221.1C459.991 223.22 459.671 225.5 459.671 227.94C459.671 232.42 460.771 235.92 462.971 238.44C465.211 240.92 468.331 242.16 472.331 242.16C475.291 242.16 477.931 241.72 480.251 240.84C482.571 239.96 484.411 238.7 485.771 237.06L490.151 239.04C488.151 241.28 485.651 243.1 482.651 244.5C479.651 245.9 476.071 246.6 471.911 246.6ZM485.231 239.04L488.291 225.66L489.671 227.52H475.991L477.071 223.2H493.811L490.151 239.04H485.231ZM515.88 246C515.84 245.56 515.88 244.9 516 244.02C516.16 243.14 516.36 242.14 516.6 241.02L516.3 240.96L519.66 226.44C519.98 225.12 520.02 223.88 519.78 222.72C519.58 221.56 518.98 220.64 517.98 219.96C517.02 219.24 515.56 218.88 513.6 218.88C511.4 218.88 509.62 219.34 508.26 220.26C506.94 221.14 506.02 222.48 505.5 224.28H501C501.8 221.2 503.34 218.86 505.62 217.26C507.9 215.62 510.78 214.8 514.26 214.8C517.3 214.8 519.62 215.38 521.22 216.54C522.86 217.66 523.9 219.14 524.34 220.98C524.78 222.82 524.76 224.78 524.28 226.86L521.04 240.84C520.88 241.6 520.74 242.46 520.62 243.42C520.5 244.38 520.46 245.24 520.5 246H515.88ZM506.34 246.6C503.54 246.6 501.3 245.86 499.62 244.38C497.94 242.86 497.1 240.88 497.1 238.44C497.1 236.56 497.58 234.94 498.54 233.58C499.5 232.22 500.9 231.12 502.74 230.28C504.62 229.4 506.94 228.8 509.7 228.48L520.62 227.22L519.72 231.12L509.58 232.26C506.94 232.54 504.98 233.18 503.7 234.18C502.42 235.14 501.78 236.48 501.78 238.2C501.78 239.64 502.26 240.72 503.22 241.44C504.22 242.16 505.66 242.52 507.54 242.52C510.06 242.52 512.22 241.94 514.02 240.78C515.82 239.62 516.96 238.08 517.44 236.16L517.26 240.48C516.14 242.4 514.62 243.9 512.7 244.98C510.82 246.06 508.7 246.6 506.34 246.6ZM540.735 246.6C538.295 246.6 536.155 246.18 534.315 245.34C532.475 244.5 531.055 243.34 530.055 241.86C529.055 240.34 528.595 238.58 528.675 236.58H533.295C533.335 237.82 533.675 238.9 534.315 239.82C534.995 240.7 535.895 241.4 537.015 241.92C538.175 242.4 539.495 242.64 540.975 242.64C542.975 242.64 544.575 242.2 545.775 241.32C547.015 240.44 547.635 239.26 547.635 237.78C547.635 236.78 547.315 235.96 546.675 235.32C546.035 234.64 545.015 234.02 543.615 233.46L539.235 231.6C537.035 230.68 535.395 229.62 534.315 228.42C533.275 227.18 532.755 225.7 532.755 223.98C532.755 222.18 533.235 220.6 534.195 219.24C535.155 217.84 536.455 216.76 538.095 216C539.775 215.2 541.695 214.8 543.855 214.8C545.975 214.8 547.855 215.18 549.495 215.94C551.135 216.7 552.415 217.76 553.335 219.12C554.295 220.44 554.795 222.02 554.835 223.86H550.275C550.155 222.78 549.795 221.86 549.195 221.1C548.635 220.34 547.855 219.76 546.855 219.36C545.895 218.96 544.735 218.76 543.375 218.76C541.575 218.76 540.135 219.16 539.055 219.96C537.975 220.76 537.435 221.86 537.435 223.26C537.435 224.18 537.755 224.98 538.395 225.66C539.035 226.3 540.055 226.92 541.455 227.52L545.715 229.32C547.955 230.28 549.595 231.4 550.635 232.68C551.715 233.96 552.255 235.48 552.255 237.24C552.255 239.12 551.775 240.78 550.815 242.22C549.895 243.62 548.575 244.7 546.855 245.46C545.135 246.22 543.095 246.6 540.735 246.6Z" fill="#FE0032"/>
</g>
<defs>
<filter id="filter0_i_3319_2" x="181.138" y="90.99" width="294.096" height="85.5235" filterUnits="userSpaceOnUse" color-interpolation-filters="sRGB">
<feFlood flood-opacity="0" result="BackgroundImageFix"/>
<feBlend mode="normal" in="SourceGraphic" in2="BackgroundImageFix" result="shape"/>
<feColorMatrix in="SourceAlpha" type="matrix" values="0 0 0 0 0 0 0 0 0 0 0 0 0 0 0 0 0 0 127 0" result="hardAlpha"/>
<feOffset dy="4"/>
<feGaussianBlur stdDeviation="2"/>
<feComposite in2="hardAlpha" operator="arithmetic" k2="-1" k3="1"/>
<feColorMatrix type="matrix" values="0 0 0 0 0 0 0 0 0 0 0 0 0 0 0 0 0 0 0.25 0"/>
<feBlend mode="normal" in2="shape" result="effect1_innerShadow_3319_2"/>
</filter>
<filter id="filter1_i_3319_2" x="195.948" y="147.592" width="318.259" height="51.4223" filterUnits="userSpaceOnUse" color-interpolation-filters="sRGB">
<feFlood flood-opacity="0" result="BackgroundImageFix"/>
<feBlend mode="normal" in="SourceGraphic" in2="BackgroundImageFix" result="shape"/>
<feColorMatrix in="SourceAlpha" type="matrix" values="0 0 0 0 0 0 0 0 0 0 0 0 0 0 0 0 0 0 127 0" result="hardAlpha"/>
<feOffset dy="4"/>
<feGaussianBlur stdDeviation="2"/>
<feComposite in2="hardAlpha" operator="arithmetic" k2="-1" k3="1"/>
<feColorMatrix type="matrix" values="0 0 0 0 0 0 0 0 0 0 0 0 0 0 0 0 0 0 0.25 0"/>
<feBlend mode="normal" in2="shape" result="effect1_innerShadow_3319_2"/>
</filter>
<filter id="filter2_i_3319_2" x="148" y="198.5" width="31" height="49.5" filterUnits="userSpaceOnUse" color-interpolation-filters="sRGB">
<feFlood flood-opacity="0" result="BackgroundImageFix"/>
<feBlend mode="normal" in="SourceGraphic" in2="BackgroundImageFix" result="shape"/>
<feColorMatrix in="SourceAlpha" type="matrix" values="0 0 0 0 0 0 0 0 0 0 0 0 0 0 0 0 0 0 127 0" result="hardAlpha"/>
<feOffset dy="4"/>
<feGaussianBlur stdDeviation="2"/>
<feComposite in2="hardAlpha" operator="arithmetic" k2="-1" k3="1"/>
<feColorMatrix type="matrix" values="0 0 0 0 0 0 0 0 0 0 0 0 0 0 0 0 0 0 0.25 0"/>
<feBlend mode="normal" in2="shape" result="effect1_innerShadow_3319_2"/>
</filter>
<filter id="filter3_i_3319_2" x="174.33" y="198.5" width="63.796" height="50.5" filterUnits="userSpaceOnUse" color-interpolation-filters="sRGB">
<feFlood flood-opacity="0" result="BackgroundImageFix"/>
<feBlend mode="normal" in="SourceGraphic" in2="BackgroundImageFix" result="shape"/>
<feColorMatrix in="SourceAlpha" type="matrix" values="0 0 0 0 0 0 0 0 0 0 0 0 0 0 0 0 0 0 127 0" result="hardAlpha"/>
<feOffset dy="4"/>
<feGaussianBlur stdDeviation="2"/>
<feComposite in2="hardAlpha" operator="arithmetic" k2="-1" k3="1"/>
<feColorMatrix type="matrix" values="0 0 0 0 0 0 0 0 0 0 0 0 0 0 0 0 0 0 0.25 0"/>
<feBlend mode="normal" in2="shape" result="effect1_innerShadow_3319_2"/>
</filter>
<filter id="filter4_i_3319_2" x="234" y="199" width="63.796" height="50.5" filterUnits="userSpaceOnUse" color-interpolation-filters="sRGB">
<feFlood flood-opacity="0" result="BackgroundImageFix"/>
<feBlend mode="normal" in="SourceGraphic" in2="BackgroundImageFix" result="shape"/>
<feColorMatrix in="SourceAlpha" type="matrix" values="0 0 0 0 0 0 0 0 0 0 0 0 0 0 0 0 0 0 127 0" result="hardAlpha"/>
<feOffset dy="4"/>
<feGaussianBlur stdDeviation="2"/>
<feComposite in2="hardAlpha" operator="arithmetic" k2="-1" k3="1"/>
<feColorMatrix type="matrix" values="0 0 0 0 0 0 0 0 0 0 0 0 0 0 0 0 0 0 0.25 0"/>
<feBlend mode="normal" in2="shape" result="effect1_innerShadow_3319_2"/>
</filter>
<filter id="filter5_i_3319_2" x="309.44" y="202.2" width="245.395" height="48.4" filterUnits="userSpaceOnUse" color-interpolation-filters="sRGB">
<feFlood flood-opacity="0" result="BackgroundImageFix"/>
<feBlend mode="normal" in="SourceGraphic" in2="BackgroundImageFix" result="shape"/>
<feColorMatrix in="SourceAlpha" type="matrix" values="0 0 0 0 0 0 0 0 0 0 0 0 0 0 0 0 0 0 127 0" result="hardAlpha"/>
<feOffset dy="4"/>
<feGaussianBlur stdDeviation="2"/>
<feComposite in2="hardAlpha" operator="arithmetic" k2="-1" k3="1"/>
<feColorMatrix type="matrix" values="0 0 0 0 0 0 0 0 0 0 0 0 0 0 0 0 0 0 0.25 0"/>
<feBlend mode="normal" in2="shape" result="effect1_innerShadow_3319_2"/>
</filter>
</defs>
</svg>
